<?xml version="1.0" encoding="UTF-8"?>
<svg width="30px" height="30px" viewBox="0 0 30 30" version="1.1" xmlns="http://www.w3.org/2000/svg" xmlns:xlink="http://www.w3.org/1999/xlink">
    <!-- Generator: Sketch 42 (36781) - http://www.bohemiancoding.com/sketch -->
    <title>archives</title>
    <desc>Created with Sketch.</desc>
    <defs>
        <circle id="path-1" cx="15" cy="15" r="15"></circle>
    </defs>
    <g id="Page-1" stroke="none" stroke-width="1" fill="none" fill-rule="evenodd">
        <g id="Artboard" transform="translate(-356.000000, -850.000000)">
            <g id="archives" transform="translate(356.000000, 850.000000)">
                <g id="Group-3">
                    <mask id="mask-2" fill="white">
                        <use xlink:href="#path-1"></use>
                    </mask>
                    <use id="Mask" fill="#CE9572" xlink:href="#path-1"></use>
                    <g mask="url(#mask-2)" id="Group-2">
                        <g transform="translate(-16.600000, 7.600000)">
                            <g transform="translate(35.000000, 14.300000) scale(-1, 1) translate(-35.000000, -14.300000) translate(23.000000, 0.000000)">
                                <path d="M15.9047433,9.52382813 L14.9523437,9.52382813 C14.6895089,9.52382813 14.4761719,9.73716518 14.4761719,10 C14.4761719,10.2628348 14.6895089,10.4761719 14.9523437,10.4761719 L15.9047433,10.4761719 C16.1675781,10.4761719 16.3809152,10.2628348 16.3809152,10 C16.3809152,9.73716518 16.1676339,9.52382813 15.9047433,9.52382813 Z" id="Shape" fill="#FFFFFF" fill-rule="nonzero"></path>
                                <path d="M15.9047433,11.4285714 L14.9523437,11.4285714 C14.6895089,11.4285714 14.4761719,11.6419085 14.4761719,11.9047433 C14.4761719,12.1675781 14.6895089,12.3809152 14.9523437,12.3809152 L15.9047433,12.3809152 C16.1675781,12.3809152 16.3809152,12.1675781 16.3809152,11.9047433 C16.380971,11.6419085 16.1676339,11.4285714 15.9047433,11.4285714 Z" id="Shape" fill="#FFFFFF" fill-rule="nonzero"></path>
                                <path d="M15.9047433,7.61902902 L14.9523437,7.61902902 C14.6895089,7.61902902 14.4761719,7.83236607 14.4761719,8.09520089 C14.4761719,8.35803571 14.6895089,8.57137277 14.9523437,8.57137277 L15.9047433,8.57137277 C16.1675781,8.57137277 16.3809152,8.35803571 16.3809152,8.09520089 C16.380971,7.83236607 16.1676339,7.61902902 15.9047433,7.61902902 Z" id="Shape" fill="#FFFFFF" fill-rule="nonzero"></path>
                                <path d="M5.42857143,9.52377232 L2.57142857,9.52377232 C2.30859375,9.52377232 2.0952567,9.73710938 2.0952567,9.9999442 L2.0952567,16.6666295 C2.0952567,16.9294643 2.30859375,17.1428013 2.57142857,17.1428013 L5.42857143,17.1428013 C5.69140625,17.1428013 5.9047433,16.9294643 5.9047433,16.6666295 L5.9047433,10 C5.9047433,9.73710938 5.69140625,9.52377232 5.42857143,9.52377232 Z M4.85714286,16.3809152 L2.95239955,16.3809152 L2.95239955,10.6666295 L4.85714286,10.6666295 L4.85714286,16.3809152 Z" id="Shape" fill="#FFFFFF" fill-rule="nonzero"></path>
                                <path d="M11.1428571,9.52382813 L9.23811384,9.52382813 C8.97527902,9.52382813 8.76194196,9.73716518 8.76194196,10 L8.76194196,16.6666853 C8.76194196,16.9295201 8.97527902,17.1428571 9.23811384,17.1428571 L11.1428571,17.1428571 C11.405692,17.1428571 11.619029,16.9295201 11.619029,16.6666853 L11.619029,10 C11.619029,9.73716518 11.405692,9.52382813 11.1428571,9.52382813 Z M10.5714844,16.380971 L9.61908482,16.380971 L9.61908482,10.6666853 L10.5714844,10.6666853 L10.5714844,16.380971 Z" id="Shape" fill="#FFFFFF" fill-rule="nonzero"></path>
                                <path d="M19.7142857,17.1428571 C19.9771205,17.1428571 20.1904576,16.9295201 20.1904576,16.6666853 L20.1904576,11.9047991 C20.1904576,11.6419643 19.9771205,11.4286272 19.7142857,11.4286272 C19.4514509,11.4286272 19.2381138,11.6419643 19.2381138,11.9047991 L19.2381138,16.6666853 C19.2381138,16.9295201 19.4514509,17.1428571 19.7142857,17.1428571 Z" id="Shape" fill="#FFFFFF" fill-rule="nonzero"></path>
                                <path d="M22.0952567,11.9047433 C22.0952567,11.6419085 21.8819196,11.4285714 21.6190848,11.4285714 C21.35625,11.4285714 21.1429129,11.6419085 21.1429129,11.9047433 L21.1429129,16.6666295 C21.1429129,16.9294643 21.35625,17.1428013 21.6190848,17.1428013 C21.8819196,17.1428013 22.0952567,16.9294643 22.0952567,16.6666295 L22.0952567,11.9047433 Z" id="Shape" fill="#FFFFFF" fill-rule="nonzero"></path>
                                <path d="M22.5714286,5.71428571 L19.7142857,5.71428571 C19.4514509,5.71428571 19.2381138,5.92762277 19.2381138,6.19045759 C19.2381138,6.45329241 19.4514509,6.66662946 19.7142857,6.66662946 L22.5714286,6.66662946 C22.833817,6.66662946 23.0476004,6.88041295 23.0476004,7.14280134 L23.0476004,27.1428571 C23.0476004,27.4052455 22.833817,27.619029 22.5714286,27.619029 L18.2857143,27.619029 L18.2857143,8.85714286 L21.1428571,8.85714286 C21.405692,8.85714286 21.619029,8.6438058 21.619029,8.38097098 C21.619029,8.11813616 21.405692,7.90479911 21.1428571,7.90479911 L18.2857143,7.90479911 L18.2857143,2.38097098 C18.2857143,1.58002232 17.6580915,0.952399554 16.8571429,0.952399554 L14,0.952399554 C13.2123884,0.952399554 12.5714286,1.59335938 12.5714286,2.38097098 L12.5714286,27.6190848 L7.80954241,27.6190848 L7.85714286,8.38097098 L11.1904576,8.38097098 C11.4532924,8.38097098 11.6666295,8.16763393 11.6666295,7.90479911 C11.6666295,7.64196429 11.4532924,7.42862723 11.1904576,7.42862723 L7.85714286,7.42862723 L7.80954241,1.42857143 C7.80954241,0.627622768 7.18191964,0 6.38097098,0 L1.61908482,0 C0.831473214,0 0.190513393,0.640959821 0.190513393,1.42857143 L0.190513393,5.71428571 L0.190513393,6.66662946 L0.190513393,27.619029 C0.190513393,27.619029 0.498102679,28.5714286 1.28571429,28.5714286 L22.5714286,28.5714286 C23.3590402,28.5714286 24,27.9304688 24,27.1428571 L24,7.14285714 C24,6.35524554 23.3590402,5.71428571 22.5714286,5.71428571 Z M1.14285714,27.8094866 L1.14285714,4 L5.42857143,4 C5.69140625,4 5.9047433,3.78666295 5.9047433,3.52382813 C5.9047433,3.2609933 5.69140625,3.04760045 5.42857143,3.04760045 L1.14285714,3.04760045 L1.14285714,1.61902902 C1.14285714,1.35189732 1.35189732,1.14285714 1.61902902,1.14285714 L6.38091518,1.14285714 C6.65234375,1.14285714 6.85708705,1.34760045 6.85708705,1.61902902 L6.85708705,27.8094866 L1.14285714,27.8094866 Z M17.2381138,27.7142299 L13.4285714,27.7142299 L13.4285714,4.85708705 L15.8095424,4.85708705 C16.0723772,4.85708705 16.2857143,4.64375 16.2857143,4.38091518 C16.2857143,4.11808036 16.0723772,3.9047433 15.8095424,3.9047433 L13.4285714,3.9047433 L13.4285714,2.47617188 C13.4285714,2.20904018 13.6376116,2 13.9047433,2 L16.761942,2 C17.0333705,2 17.2381138,2.2047433 17.2381138,2.47617188 L17.2381138,27.7142299 Z" id="Shape" fill="#FFFFFF" fill-rule="nonzero"></path>
                            </g>
                            <g transform="translate(12.000000, 17.500000) scale(-1, 1) translate(-12.000000, -17.500000) translate(0.000000, 3.200000)">
                                <path d="M5.42857143,9.52377232 L2.57142857,9.52377232 C2.30859375,9.52377232 2.0952567,9.73710938 2.0952567,9.9999442 L2.0952567,16.6666295 C2.0952567,16.9294643 2.30859375,17.1428013 2.57142857,17.1428013 L5.42857143,17.1428013 C5.69140625,17.1428013 5.9047433,16.9294643 5.9047433,16.6666295 L5.9047433,10 C5.9047433,9.73710938 5.69140625,9.52377232 5.42857143,9.52377232 Z M4.85714286,16.3809152 L2.95239955,16.3809152 L2.95239955,10.6666295 L4.85714286,10.6666295 L4.85714286,16.3809152 Z" id="Shape" fill="#FFFFFF" fill-rule="nonzero"></path>
                                <path d="M22.5714286,5.71428571 L19.7142857,5.71428571 C19.4514509,5.71428571 19.2381138,5.92762277 19.2381138,6.19045759 C19.2381138,6.45329241 19.4514509,6.66662946 19.7142857,6.66662946 L22.5714286,6.66662946 C22.833817,6.66662946 23.0476004,6.88041295 23.0476004,7.14280134 L23.0476004,27.1428571 C23.0476004,27.4052455 22.833817,27.619029 22.5714286,27.619029 L18.2857143,27.619029 L18.2857143,8.85714286 L21.1428571,8.85714286 C21.405692,8.85714286 21.619029,8.6438058 21.619029,8.38097098 C21.619029,8.11813616 21.405692,7.90479911 21.1428571,7.90479911 L18.2857143,7.90479911 L18.2857143,2.38097098 C18.2857143,1.58002232 17.6580915,0.952399554 16.8571429,0.952399554 L14,0.952399554 C13.2123884,0.952399554 12.5714286,1.59335938 12.5714286,2.38097098 L12.5714286,27.6190848 L7.80954241,27.6190848 L7.85714286,8.38097098 L11.1904576,8.38097098 C11.4532924,8.38097098 11.6666295,8.16763393 11.6666295,7.90479911 C11.6666295,7.64196429 11.4532924,7.42862723 11.1904576,7.42862723 L7.85714286,7.42862723 L7.80954241,1.42857143 C7.80954241,0.627622768 7.18191964,0 6.38097098,0 L1.61908482,0 C0.831473214,0 0.190513393,0.640959821 0.190513393,1.42857143 L0.190513393,5.71428571 L0.190513393,6.66662946 L0.190513393,27.619029 C0.190513393,27.619029 0.498102679,28.5714286 1.28571429,28.5714286 L22.5714286,28.5714286 C23.3590402,28.5714286 24,27.9304688 24,27.1428571 L24,7.14285714 C24,6.35524554 23.3590402,5.71428571 22.5714286,5.71428571 Z M1.14285714,27.8094866 L1.14285714,4 L5.42857143,4 C5.69140625,4 5.9047433,3.78666295 5.9047433,3.52382813 C5.9047433,3.2609933 5.69140625,3.04760045 5.42857143,3.04760045 L1.14285714,3.04760045 L1.14285714,1.61902902 C1.14285714,1.35189732 1.35189732,1.14285714 1.61902902,1.14285714 L6.38091518,1.14285714 C6.65234375,1.14285714 6.85708705,1.34760045 6.85708705,1.61902902 L6.85708705,27.8094866 L1.14285714,27.8094866 Z M17.2381138,27.7142299 L13.4285714,27.7142299 L13.4285714,4.85708705 L15.8095424,4.85708705 C16.0723772,4.85708705 16.2857143,4.64375 16.2857143,4.38091518 C16.2857143,4.11808036 16.0723772,3.9047433 15.8095424,3.9047433 L13.4285714,3.9047433 L13.4285714,2.47617188 C13.4285714,2.20904018 13.6376116,2 13.9047433,2 L16.761942,2 C17.0333705,2 17.2381138,2.2047433 17.2381138,2.47617188 L17.2381138,27.7142299 Z" id="Shape" fill="#FFFFFF" fill-rule="nonzero"></path>
                            </g>
                        </g>
                    </g>
                </g>
            </g>
        </g>
    </g>
</svg>