<?xml version="1.0" encoding="UTF-8"?>
<svg width="49px" height="49px" viewBox="0 0 49 49" version="1.1" xmlns="http://www.w3.org/2000/svg" xmlns:xlink="http://www.w3.org/1999/xlink">
    <!-- Generator: Sketch 42 (36781) - http://www.bohemiancoding.com/sketch -->
    <title>Shape</title>
    <desc>Created with Sketch.</desc>
    <defs></defs>
    <g id="Page-1" stroke="none" stroke-width="1" fill="none" fill-rule="evenodd">
        <g id="chevron-upwards-arrow" fill-rule="nonzero" fill="#337AB7">
            <path d="M24.5115639,0 C11.0032805,0 0.012,10.9915713 0.012,24.5017445 C0.012,38.0113362 11.0031352,49.003489 24.5115639,49.003489 C38.0215917,49.003489 49.012,38.0113362 49.012,24.5017445 C49.012,10.9915713 38.0215917,0 24.5115639,0 Z M39.4654448,32.6112792 C39.1155299,32.9604672 38.6570208,33.1368057 38.1988024,33.1368057 C37.7397118,33.1368057 37.2813481,32.9604672 36.9312878,32.6112792 L24.5115639,20.1924275 L12.0931483,32.6112792 C11.3930278,33.3112543 10.2569312,33.3112543 9.55681075,32.6112792 C8.85625417,31.9113042 8.85625417,30.7763705 9.55681075,30.0762501 L23.2440493,16.3906106 C23.945042,15.6906356 25.0776496,15.6906356 25.777334,16.3906106 L39.4645725,30.0762501 C40.1655652,30.7763705 40.1655652,31.9113042 39.4654448,32.6112792 Z" id="Shape"></path>
        </g>
    </g>
</svg>