<?xml version="1.0" encoding="UTF-8"?>
<svg width="50px" height="50px" viewBox="0 0 50 50" version="1.1" xmlns="http://www.w3.org/2000/svg" xmlns:xlink="http://www.w3.org/1999/xlink">
    <!-- Generator: Sketch 42 (36781) - http://www.bohemiancoding.com/sketch -->
    <title>main logo</title>
    <desc>Created with Sketch.</desc>
    <defs></defs>
    <g id="Page-1" stroke="none" stroke-width="1" fill="none" fill-rule="evenodd">
        <g id="Artboard" transform="translate(-356.000000, -178.000000)" fill-rule="nonzero">
            <g id="main-logo" transform="translate(356.000000, 178.000000)">
                <g id="Group">
                    <path d="M47.7222222,22.2222222 L9.44444444,23.0952381 C4.96477778,23.0952381 1.33333333,18.621746 1.33333333,12.2222222 L1.33333333,10 C1.33333333,3.60047619 4.96477778,1.11111111 9.44444444,1.11111111 L47.6111111,1.11111111 L47.7222222,22.2222222 Z" id="Shape" fill="#FFEBB7" opacity="0.939999998"></path>
                    <polygon id="Rectangle-path" fill="#FFEBB7" transform="translate(24.666667, 37.936508) scale(-1, 1) translate(-24.666667, -37.936508) " points="2 28.4126984 47.3333333 28.4126984 47.3333333 47.4603175 2.02433333 47.4603175"></polygon>
                    <path d="M44.4444444,23.4920635 L2.11111111,23.4920635 C1.61977778,23.4920635 1.22222222,22.924127 1.22222222,22.2222222 C1.22222222,21.5203175 1.61977778,20.952381 2.11111111,20.952381 L44.4444444,20.952381 C45.9148889,20.952381 48,19.0847619 48,16.984127 L48,6.50793651 C48,4.40730159 45.9148889,2.53968254 44.4444444,2.53968254 L2.11111111,2.53968254 C1.61977778,2.53968254 1.22222222,1.97174603 1.22222222,1.26984127 C1.22222222,0.567936508 1.61977778,0 2.11111111,0 L44.4444444,0 C46.895,0 49.7777778,3.00714286 49.7777778,6.50793651 L49.7777778,16.984127 C49.7777778,20.4849206 46.895,23.4920635 44.4444444,23.4920635 Z" id="Shape" fill="#CE9572" transform="translate(25.500000, 11.746032) scale(-1, 1) translate(-25.500000, -11.746032) "></path>
                    <path d="M44.7777778,34.7619048 L2.88888889,34.7619048 C2.398,34.7619048 2,34.1933333 2,33.4920635 C2,32.7907937 2.398,32.2222222 2.88888889,32.2222222 L44.7777778,32.2222222 L44.7777778,34.7619048 Z" id="Shape" fill="#E6BE94" transform="translate(23.388889, 33.492063) scale(-1, 1) translate(-23.388889, -33.492063) "></path>
                    <path d="M44.7777778,39.8412698 L2.88888889,39.8412698 C2.398,39.8412698 2,39.2726984 2,38.5714286 C2,37.8701587 2.398,37.3015873 2.88888889,37.3015873 L44.7777778,37.3015873 L44.7777778,39.8412698 Z" id="Shape" fill="#E6BE94" transform="translate(23.388889, 38.571429) scale(-1, 1) translate(-23.388889, -38.571429) "></path>
                    <path d="M44.7777778,44.9206349 L2.88888889,44.9206349 C2.398,44.9206349 2,44.3520635 2,43.6507937 C2,42.9495238 2.398,42.3809524 2.88888889,42.3809524 L44.7777778,42.3809524 L44.7777778,44.9206349 Z" id="Shape" fill="#E6BE94" transform="translate(23.388889, 43.650794) scale(-1, 1) translate(-23.388889, -43.650794) "></path>
                    <g id="3" transform="translate(5.222222, 3.174603)" fill="#E6BE94">
                        <path d="M0.888888889,15.2380952 C0.397555556,15.2380952 0,15.8060317 0,16.5079365 C0,17.2098413 0.397555556,17.7777778 0.888888889,17.7777778 L42.4444444,17.7777778 L42.4444444,15.2380952 L0.888888889,15.2380952 Z" id="Shape"></path>
                        <path d="M0.888888889,10.1587302 C0.397555556,10.1587302 0,10.7266667 0,11.4285714 C0,12.1304762 0.397555556,12.6984127 0.888888889,12.6984127 L42.4444444,12.6984127 L42.4444444,10.1587302 L0.888888889,10.1587302 Z" id="Shape"></path>
                        <path d="M0.888888889,5.07936508 C0.397555556,5.07936508 0,5.64730159 0,6.34920635 C0,7.05111111 0.397555556,7.61904762 0.888888889,7.61904762 L42.4444444,7.61904762 L42.4444444,5.07936508 L0.888888889,5.07936508 Z" id="Shape"></path>
                        <path d="M0.888888889,0 C0.397555556,0 0,0.567936508 0,1.26984127 C0,1.97174603 0.397555556,2.53968254 0.888888889,2.53968254 L42.4444444,2.53968254 L42.4444444,0 L0.888888889,0 Z" id="Shape"></path>
                    </g>
                    <path d="M48.2222222,50 L5.33333333,50 C2.39233333,50 0,46.582381 0,42.3809524 L0,32.2222222 C0,28.0207937 2.39233333,24.6031746 5.33333333,24.6031746 L48.2222222,24.6031746 C49.204,24.6031746 50,25.7403175 50,27.1428571 C50,28.5453968 49.204,29.6825397 48.2222222,29.6825397 L5.33333333,29.6825397 C4.35288889,29.6825397 3.55555556,30.8215873 3.55555556,32.2222222 L3.55555556,42.3809524 C3.55555556,43.7809524 4.35288889,44.9206349 5.33333333,44.9206349 L48.2222222,44.9206349 C49.204,44.9206349 50,46.0577778 50,47.4603175 C50,48.8628571 49.204,50 48.2222222,50 Z" id="Shape" fill="#BF8270" transform="translate(25.000000, 37.301587) scale(-1, 1) translate(-25.000000, -37.301587) "></path>
                </g>
            </g>
        </g>
    </g>
</svg>