<?xml version="1.0" encoding="UTF-8"?>
<svg width="30px" height="30px" viewBox="0 0 30 30" version="1.1" xmlns="http://www.w3.org/2000/svg" xmlns:xlink="http://www.w3.org/1999/xlink">
    <!-- Generator: Sketch 42 (36781) - http://www.bohemiancoding.com/sketch -->
    <title>MUSEUM Copy@1x</title>
    <desc>Created with Sketch.</desc>
    <defs></defs>
    <g id="Page-1" stroke="none" stroke-width="1" fill="none" fill-rule="evenodd">
        <g id="Artboard" transform="translate(-356.000000, -1735.000000)">
            <g id="MUSEUM-Copy" transform="translate(371.000000, 1750.000000) rotate(270.000000) translate(-371.000000, -1750.000000) translate(356.000000, 1735.000000)">
                <circle id="Oval" fill="#CE9572" cx="15" cy="15" r="15"></circle>
                <g id="Group-4" transform="translate(5.000000, 3.400000)" fill-rule="nonzero" fill="#FFFFFF">
                    <g id="Group" transform="translate(-0.000000, 0.000000)">
                        <path d="M16.2790255,6.68204176 C16.4047332,6.68422274 16.5315545,6.68635731 16.6610209,6.68635731 C17.5648724,6.68635731 19.9669142,6.68635731 19.9669142,3.34283063 C19.9669142,1.12932715 18.6008817,0.00742459397 15.9073318,0.00742459397 L0.000742459397,0.00849187935 L0.000742459397,1.4999536 L15.9073318,1.49888631 C17.7788863,1.49888631 18.4757773,1.99819026 18.4757773,3.34283063 C18.4757773,5.07053364 17.790348,5.19461717 16.6610673,5.19461717 C16.540232,5.19461717 16.42,5.19354988 16.3029234,5.19081206 C16.1815313,5.18918794 16.062877,5.18700696 15.9479814,5.18700696 L0.000742459397,5.18700696 L0.000742459397,6.67823666 L15.9484919,6.67823666 C16.05471,6.67823666 16.16529,6.68041763 16.2790255,6.68204176 Z" id="Shape"></path>
                        <rect id="Rectangle-path" x="0.932157773" y="4.20542923" width="15.9082135" height="0.5"></rect>
                        <rect id="Rectangle-path" x="0.932157773" y="3.16969838" width="15.9082135" height="0.5"></rect>
                        <rect id="Rectangle-path" x="0.932157773" y="2.07215777" width="15.9082135" height="0.5"></rect>
                    </g>
                    <g id="Group" transform="translate(-0.000000, 16.705336)">
                        <path d="M16.2790255,6.68204176 C16.4047332,6.68422274 16.5315545,6.68635731 16.6610209,6.68635731 C17.5648724,6.68635731 19.9669142,6.68635731 19.9669142,3.34283063 C19.9669142,1.12932715 18.6008817,0.00742459397 15.9073318,0.00742459397 L0.000742459397,0.00849187935 L0.000742459397,1.4999536 L15.9073318,1.49888631 C17.7788863,1.49888631 18.4757773,1.99819026 18.4757773,3.34283063 C18.4757773,5.07053364 17.790348,5.19461717 16.6610673,5.19461717 C16.540232,5.19461717 16.42,5.19354988 16.3029234,5.19081206 C16.1815313,5.18918794 16.062877,5.18700696 15.9479814,5.18700696 L0.000742459397,5.18700696 L0.000742459397,6.67823666 L15.9484919,6.67823666 C16.05471,6.67823666 16.16529,6.68041763 16.2790255,6.68204176 Z" id="Shape"></path>
                        <rect id="Rectangle-path" x="0.932157773" y="4.20542923" width="15.9082135" height="0.5"></rect>
                        <rect id="Rectangle-path" x="0.932157773" y="3.16969838" width="15.9082135" height="0.5"></rect>
                        <rect id="Rectangle-path" x="0.932157773" y="2.07215777" width="15.9082135" height="0.5"></rect>
                    </g>
                    <g id="Group" transform="translate(10.000000, 11.752668) scale(-1, 1) translate(-10.000000, -11.752668) translate(-0.000000, 8.352668)">
                        <path d="M16.2790255,6.68204176 C16.4047332,6.68422274 16.5315545,6.68635731 16.6610209,6.68635731 C17.5648724,6.68635731 19.9669142,6.68635731 19.9669142,3.34283063 C19.9669142,1.12932715 18.6008817,0.00742459397 15.9073318,0.00742459397 L0.000742459397,0.00849187935 L0.000742459397,1.4999536 L15.9073318,1.49888631 C17.7788863,1.49888631 18.4757773,1.99819026 18.4757773,3.34283063 C18.4757773,5.07053364 17.790348,5.19461717 16.6610673,5.19461717 C16.540232,5.19461717 16.42,5.19354988 16.3029234,5.19081206 C16.1815313,5.18918794 16.062877,5.18700696 15.9479814,5.18700696 L0.000742459397,5.18700696 L0.000742459397,6.67823666 L15.9484919,6.67823666 C16.05471,6.67823666 16.16529,6.68041763 16.2790255,6.68204176 Z" id="Shape"></path>
                        <rect id="Rectangle-path" x="0.932157773" y="4.20542923" width="15.9082135" height="0.5"></rect>
                        <rect id="Rectangle-path" x="0.932157773" y="3.16969838" width="15.9082135" height="0.5"></rect>
                        <rect id="Rectangle-path" x="0.932157773" y="2.07215777" width="15.9082135" height="0.5"></rect>
                    </g>
                </g>
            </g>
        </g>
    </g>
</svg>