<?xml version="1.0" encoding="UTF-8"?>
<svg width="30px" height="31px" viewBox="0 0 30 31" version="1.1" xmlns="http://www.w3.org/2000/svg" xmlns:xlink="http://www.w3.org/1999/xlink">
    <!-- Generator: Sketch 42 (36781) - http://www.bohemiancoding.com/sketch -->
    <title>MUSIC</title>
    <desc>Created with Sketch.</desc>
    <defs>
        <ellipse id="path-1" cx="15" cy="15" rx="15" ry="15"></ellipse>
    </defs>
    <g id="Page-1" stroke="none" stroke-width="1" fill="none" fill-rule="evenodd">
        <g id="Artboard" transform="translate(-356.000000, -1155.000000)">
            <g id="MUSIC" transform="translate(356.000000, 1155.000000)">
                <g id="Shape-+-Shape-Mask" transform="translate(0.000000, 0.260143)">
                    <mask id="mask-2" fill="white">
                        <use xlink:href="#path-1"></use>
                    </mask>
                    <use id="Mask" fill="#CE9572" xlink:href="#path-1"></use>
                    <path d="M21.9666419,13.8066756 C21.6462586,12.7924347 20.1992301,9.93072368 19.5028683,9.33627341 C19.0668591,8.96412682 18.6049003,8.70208493 18.1550799,8.57166608 L18.1550799,8.46376033 C18.1550799,7.67423153 17.6777535,7.03192786 17.0910651,7.03192786 C16.5043766,7.03192786 16.0270892,7.67423153 16.0270892,8.46376033 L16.0270892,17.1241268 C15.584933,17.0986818 15.1202509,17.1796766 14.6630385,17.3640221 C13.9173061,17.6647551 13.2696922,18.2088389 12.83948,18.896064 C12.3760038,19.6364828 12.2129527,20.4581582 12.3802834,21.2097813 C12.5266832,21.8673729 12.9184183,22.3956451 13.4832811,22.6973205 C13.8290305,22.8819802 14.2313478,22.9763258 14.6549851,22.9763258 C14.8653837,22.9763258 15.0810735,22.9530273 15.297658,22.9059593 C15.4775939,22.8668493 15.5999504,22.6388389 15.5708494,22.3966399 C15.5417873,22.1544933 15.3723557,21.990043 15.1923809,22.0289959 C14.1370419,22.2583153 13.2000911,21.7965352 13.0126853,20.9547551 C12.7913933,19.9610902 13.6339604,18.7063781 14.8525451,18.2150169 C15.3497908,18.0144933 15.8527555,17.9580012 16.3071279,18.0517708 C16.4023286,18.0713519 16.4990466,18.0341268 16.5721103,17.9497289 C16.645174,17.865331 16.6871915,17.742242 16.6871915,17.6126608 L16.6871915,8.46370797 C16.6871915,8.16402211 16.8683335,7.92025247 17.0910262,7.92025247 C17.3137188,7.92025247 17.4948997,8.16402211 17.4948997,8.46370797 L17.4948997,8.94920535 C17.4948997,9.16349854 17.6085803,9.34721582 17.7651732,9.38606399 C17.8012771,9.39501687 17.8338796,9.39988598 17.8625526,9.40412682 C17.8772977,9.40632577 18.7394729,9.73658755 19.1492212,10.0863781 C19.7320191,10.583865 21.0912778,13.3063614 21.3590614,14.1541101 C21.6274286,15.0036913 21.717416,16.0712829 21.6124112,17.1603405 L21.5822598,17.4730107 C21.426017,16.6395028 21.2149959,15.7144766 20.7453728,14.9553143 C20.2350939,14.1302358 18.5325758,11.706797 17.815672,11.8941792 C17.7778563,11.9040745 17.7432308,11.9165876 17.7127292,11.9314567 C17.5819693,11.9950692 17.4948219,12.1621373 17.4948219,12.3492054 L17.4948219,19.0142315 C17.4948219,19.0574252 17.4994905,19.1003572 17.5086721,19.1417184 C17.6848732,19.9331321 17.1907788,20.9170064 16.307089,21.5343362 C16.1453217,21.6473729 16.0822566,21.9154881 16.1662137,22.1332368 C16.2502098,22.3509331 16.4494815,22.4358022 16.6112488,22.3228179 C17.7777007,21.5078965 18.3915838,20.1617184 18.1549631,18.9530797 L18.1549631,12.7383153 C18.5815573,12.7383153 19.9382093,15.0390316 20.2380118,15.5236389 C20.6200206,16.1412829 20.7957549,16.9119635 20.9284211,17.6508641 C20.9988004,18.0400264 21.2236328,18.3108117 21.4935951,18.3578798 C21.6692515,18.388508 21.8433906,18.3253143 21.9838768,18.1797122 C22.1242852,18.0341625 22.214117,17.823796 22.2369154,17.5873038 L22.2670668,17.2746337 C22.3519188,16.3950002 22.368648,15.079241 21.9666419,13.8066756 Z" id="Shape" fill="#FFFFFF" fill-rule="nonzero" mask="url(#mask-2)" transform="translate(17.316226, 15.004127) rotate(-30.000000) translate(-17.316226, -15.004127) "></path>
                    <path d="M-7.94378386,29.8744619 C-7.83626373,29.9472939 -7.71126673,29.984479 -7.58499998,29.984479 C-7.50499998,29.984479 -7.42435972,29.9695009 -7.34749572,29.9388467 C-1.50749565,27.6070058 4.01186352,27.604767 9.52623127,29.9341738 C9.53231159,29.9366689 9.5389034,29.9371181 9.54498372,29.9394863 C9.57032798,29.9493423 9.59637534,29.9551016 9.62261553,29.9615029 C9.64763991,29.9677749 9.67215166,29.9748134 9.69762411,29.9778847 C9.72341515,29.981022 9.74921348,29.980126 9.77512657,29.980126 C9.80123985,29.980126 9.82684043,29.981022 9.85250449,29.9778847 C9.87861534,29.9748134 9.9037667,29.967455 9.92936728,29.9610537 C9.95465291,29.9547817 9.97967243,29.9493423 10.0043746,29.9398061 C10.0109029,29.937311 10.0178145,29.9369887 10.0243428,29.9341738 C15.5362155,27.6044448 21.0556394,27.6060464 26.8974949,29.9388467 C26.9743605,29.9695009 27.0550001,29.984479 27.1350001,29.984479 C27.2612721,29.984479 27.3862648,29.9472939 27.4937208,29.8744619 C27.6699758,29.7551016 27.7750001,29.5566372 27.7750001,29.344479 L27.7750001,6.29852591 C27.7750001,6.04636585 27.6268385,5.81762991 27.3962477,5.71446159 C22.2046949,3.39010975 16.2766968,3.36162956 9.77499992,5.62370965 C3.27330428,3.36226949 -2.65533592,3.38882956 -7.84624786,5.71446159 C-8.07690399,5.81762991 -8.22499986,6.04636591 -8.22499986,6.29852591 L-8.22499986,29.3444783 C-8.22499986,29.5566372 -8.12003999,29.7551016 -7.94378386,29.8744619 Z M26.4950001,6.71823786 L26.4950001,28.4163485 C23.7506153,27.425118 21.024983,26.9295003 18.3325049,26.9295003 C15.6556397,26.9295003 13.0106543,27.4194857 10.4149999,28.3994539 L10.4149999,6.75356502 C16.3524707,4.73257377 21.7574634,4.7204137 26.4950001,6.71823786 Z M-6.94499997,6.71823786 C-2.20874411,4.72137383 3.19689347,4.73289357 9.13500023,6.7535656 L9.13500023,28.3994545 C3.92687274,26.4335658 -1.47312733,26.4394545 -6.94499997,28.416349 L-6.94499997,6.71823786 L-6.94499997,6.71823786 Z" id="Shape" fill="#FFFFFF" fill-rule="nonzero" mask="url(#mask-2)"></path>
                </g>
            </g>
        </g>
    </g>
</svg>