<?xml version="1.0" encoding="UTF-8"?>
<svg width="30px" height="30px" viewBox="0 0 30 30" version="1.1" xmlns="http://www.w3.org/2000/svg" xmlns:xlink="http://www.w3.org/1999/xlink">
    <!-- Generator: Sketch 42 (36781) - http://www.bohemiancoding.com/sketch -->
    <title>rarebooks@1x</title>
    <desc>Created with Sketch.</desc>
    <defs></defs>
    <g id="Page-1" stroke="none" stroke-width="1" fill="none" fill-rule="evenodd">
        <g id="Artboard" transform="translate(-356.000000, -595.000000)">
            <g id="rarebooks" transform="translate(371.000000, 610.000000) scale(1, -1) translate(-371.000000, -610.000000) translate(356.000000, 595.000000)">
                <circle id="Oval" fill="#CE9572" cx="15" cy="15" r="15"></circle>
                <path d="M23.5482061,8.67141576 L11.9784768,2.63183243 C10.393984,1.78625951 7.26922621,3.41985326 6.37155263,4.85735326 C5.97067234,5.49954076 6.00050051,5.96386368 6.00050051,6.22610326 L7.19672668,18.0475947 C7.20624083,18.3369176 8.26308369,19.9166667 8.5713938,20.1083333 C9.2132137,20.5070313 17.183235,27.2813116 17.4588884,27.4552699 C17.6070007,27.5484991 17.7818555,27.5919887 17.9546532,27.5919887 C18.1017369,27.5919887 18.2493349,27.5589158 18.3830474,27.4917283 C18.6751577,27.3464158 18.8569553,27.0641241 18.8569553,26.7573533 L18.8569553,12.4320928 C18.8569553,12.1339158 18.5370763,11.8279109 18.2573086,11.6789525 L7.8894464,5.76412409 C8.00850193,5.53000951 8.4764956,5.03469701 9.33636969,4.57870743 C10.2422717,4.09823868 10.9208626,4.27974909 11.076689,4.34068659 C11.076689,4.34068659 21.1688954,9.81047826 21.4777198,9.97323868 C21.7850014,10.1357387 21.7911727,10.3591609 21.7911727,10.6372859 L21.7911727,24.0320928 C21.7911727,24.7102178 22.4713064,24.987822 22.9698996,24.987822 C23.4682358,24.987822 24,24.4930303 24,24.0320928 L24,9.72582754 C23.9997429,9.42765046 23.8269452,8.82037409 23.5482061,8.67141576 Z" id="Shape" fill="#FFFFFF" fill-rule="nonzero"></path>
            </g>
        </g>
    </g>
</svg>